<?xml version="1.0" encoding="utf-8"?>
<svg viewBox="0 0 500 184" xmlns="http://www.w3.org/2000/svg">
  <g transform="matrix(1.009232, 0, 0, 1.009232, -2.255472, -2.220237)">
    <g transform="matrix(0.35603, 0, 0, 0.35603, -57.90789, 4.336107)" style="">
      <path style="fill:#F6E27D;" d="M 354.545 -6 C 252.195 -6 168.926 77.269 168.926 179.619 C 168.926 236.109 194.735 289.394 238.533 324.509 L 238.533 388.441 C 238.533 401.255 248.922 411.643 261.735 411.643 L 447.355 411.643 C 460.169 411.643 470.557 401.255 470.557 388.441 L 470.557 324.509 C 514.355 289.394 540.164 236.111 540.164 179.619 C 540.164 77.269 456.895 -6 354.545 -6 Z"/>
      <path style="fill:#F2D23D;" d="M 354.545 -6 L 354.545 411.643 L 447.355 411.643 C 460.169 411.643 470.557 401.255 470.557 388.441 L 470.557 324.509 C 514.355 289.394 540.164 236.111 540.164 179.619 C 540.164 77.269 456.895 -6 354.545 -6 Z"/>
      <path style="fill:#59585C;" d="M 400.95 210.556 L 308.14 210.556 C 295.326 210.556 284.938 220.945 284.938 233.758 C 284.938 246.572 295.327 256.96 308.14 256.96 L 331.342 256.96 L 331.342 388.44 C 331.342 401.254 341.731 411.642 354.544 411.642 C 367.358 411.642 377.746 401.254 377.746 388.44 L 377.746 256.96 L 400.948 256.96 C 413.762 256.96 424.15 246.571 424.15 233.758 C 424.152 220.944 413.764 210.556 400.95 210.556 Z"/>
      <path style="fill:#CE8BD4;" d="M 462.823 366.785 L 246.267 366.785 C 233.453 366.785 223.065 377.174 223.065 389.987 L 223.065 482.797 C 223.065 495.611 233.454 505.999 246.267 505.999 L 462.823 505.999 C 475.637 505.999 486.025 495.611 486.025 482.797 L 486.025 389.987 C 486.025 377.174 475.637 366.785 462.823 366.785 Z"/>
      <path style="fill:#BF6AC8;" d="M 462.823 366.785 L 354.545 366.785 L 354.545 506 L 462.823 506 C 475.637 506 486.025 495.612 486.025 482.798 L 486.025 389.988 C 486.025 377.174 475.637 366.785 462.823 366.785 Z"/>
    </g>
    <path d="M 235.738 125.729 L 207.583 94.533 L 207.583 125.729 L 198.656 125.729 L 198.656 57.353 L 207.583 57.353 L 207.583 89.04 L 235.836 57.353 L 247.117 57.353 L 216.118 91.59 L 247.411 125.729 Z M 306.457 96.789 Q 306.457 99.34 306.162 102.185 L 263.195 102.185 Q 263.685 110.131 268.639 114.595 Q 273.593 119.058 280.656 119.058 Q 286.444 119.058 290.319 116.36 Q 294.194 113.663 295.764 109.15 L 305.378 109.15 Q 303.219 116.9 296.745 121.756 Q 290.27 126.612 280.656 126.612 Q 273.005 126.612 266.971 123.178 Q 260.938 119.745 257.505 113.417 Q 254.071 107.09 254.071 98.751 Q 254.071 90.413 257.407 84.135 Q 260.742 77.856 266.775 74.472 Q 272.808 71.087 280.656 71.087 Q 288.308 71.087 294.194 74.423 Q 300.08 77.758 303.268 83.595 Q 306.457 89.432 306.457 96.789 Z M 297.235 94.926 Q 297.235 89.824 294.979 86.146 Q 292.723 82.467 288.848 80.554 Q 284.973 78.641 280.264 78.641 Q 273.495 78.641 268.737 82.957 Q 263.979 87.274 263.293 94.926 L 297.235 94.926 Z M 367.271 96.789 Q 367.271 99.34 366.977 102.185 L 324.009 102.185 Q 324.5 110.131 329.454 114.595 Q 334.408 119.058 341.471 119.058 Q 347.259 119.058 351.134 116.36 Q 355.009 113.663 356.579 109.15 L 366.192 109.15 Q 364.034 116.9 357.56 121.756 Q 351.085 126.612 341.471 126.612 Q 333.819 126.612 327.786 123.178 Q 321.753 119.745 318.32 113.417 Q 314.886 107.09 314.886 98.751 Q 314.886 90.413 318.221 84.135 Q 321.557 77.856 327.59 74.472 Q 333.623 71.087 341.471 71.087 Q 349.123 71.087 355.009 74.423 Q 360.895 77.758 364.083 83.595 Q 367.271 89.432 367.271 96.789 Z M 358.05 94.926 Q 358.05 89.824 355.794 86.146 Q 353.537 82.467 349.663 80.554 Q 345.788 78.641 341.079 78.641 Q 334.31 78.641 329.552 82.957 Q 324.794 87.274 324.107 94.926 L 358.05 94.926 Z M 387.951 81.878 Q 390.6 77.268 395.849 74.177 Q 401.097 71.087 408.062 71.087 Q 415.223 71.087 421.06 74.521 Q 426.897 77.954 430.233 84.184 Q 433.568 90.413 433.568 98.653 Q 433.568 106.796 430.233 113.172 Q 426.897 119.549 421.06 123.08 Q 415.223 126.612 408.062 126.612 Q 401.195 126.612 395.947 123.522 Q 390.698 120.432 387.951 115.821 L 387.951 151.235 L 379.024 151.235 L 379.024 71.97 L 387.951 71.97 L 387.951 81.878 Z M 424.445 98.653 Q 424.445 92.571 421.992 88.059 Q 419.54 83.546 415.37 81.192 Q 411.201 78.837 406.198 78.837 Q 401.293 78.837 397.124 81.241 Q 392.955 83.644 390.453 88.206 Q 387.951 92.767 387.951 98.751 Q 387.951 104.834 390.453 109.395 Q 392.955 113.957 397.124 116.36 Q 401.293 118.764 406.198 118.764 Q 411.201 118.764 415.37 116.36 Q 419.54 113.957 421.992 109.395 Q 424.445 104.834 424.445 98.653 Z M 449.946 63.239 Q 447.395 63.239 445.629 61.473 Q 443.864 59.708 443.864 57.157 Q 443.864 54.606 445.629 52.841 Q 447.395 51.075 449.946 51.075 Q 452.398 51.075 454.115 52.841 Q 455.832 54.606 455.832 57.157 Q 455.832 59.708 454.115 61.473 Q 452.398 63.239 449.946 63.239 Z M 454.262 71.97 L 454.262 125.729 L 445.335 125.729 L 445.335 71.97 Z M 480.356 79.328 L 480.356 111.014 Q 480.356 114.938 482.023 116.557 Q 483.691 118.175 487.811 118.175 L 494.384 118.175 L 494.384 125.729 L 486.34 125.729 Q 478.884 125.729 475.156 122.295 Q 471.429 118.862 471.429 111.014 L 471.429 79.328 L 464.464 79.328 L 464.464 71.97 L 471.429 71.97 L 471.429 58.432 L 480.356 58.432 L 480.356 71.97 L 494.384 71.97 L 494.384 79.328 Z" style="fill: rgb(95, 99, 104);"/>
  </g>
</svg>