<?xml version="1.0" encoding="utf-8"?>
<svg viewBox="0 0 1000 306" xmlns="http://www.w3.org/2000/svg" xmlns:bx="https://boxy-svg.com">
  <defs>
    <radialGradient gradientUnits="userSpaceOnUse" cx="249.654" cy="286.609" r="153.842" id="gradient-1" gradientTransform="matrix(1.315266, 0.007526, -0.00757, 1.322855, -61.985368, -143.818512)">
      <stop offset="0" style="stop-color: rgb(219, 185, 174);"/>
      <stop offset="1" style="stop-color: rgb(30.17% 24.863% 23.088%)"/>
    </radialGradient>
    <linearGradient gradientUnits="userSpaceOnUse" x1="172.968" y1="1.107" x2="172.968" y2="123.737" id="gradient-2" gradientTransform="matrix(-0.936107, -0.351712, 0.234661, -0.624556, 327.098832, 150.732393)">
      <stop offset="0" style="stop-opacity: 0; stop-color: rgb(118, 98, 92);"/>
      <stop offset="1" style="stop-color: rgb(227, 224, 205);"/>
    </linearGradient>
    <linearGradient gradientUnits="userSpaceOnUse" x1="172.968" y1="1.107" x2="172.968" y2="123.737" id="gradient-3" gradientTransform="matrix(-0.936107, -0.351712, 0.234661, -0.624556, 327.098832, 150.732393)">
      <stop offset="0" style="stop-opacity: 0; stop-color: rgb(118, 98, 92);"/>
      <stop offset="1" style="stop-color: rgb(227, 224, 205);"/>
    </linearGradient>
    <filter id="drop-shadow-filter-1" color-interpolation-filters="sRGB" x="-50%" y="-50%" width="200%" height="200%" bx:preset="drop-shadow 1 0 0 0 0.54 rgba(0,0,0,0.3)">
      <feGaussianBlur in="SourceAlpha" stdDeviation="0"/>
      <feOffset dx="0" dy="0"/>
      <feComponentTransfer result="offsetblur">
        <feFuncA id="spread-ctrl" type="linear" slope="1.08"/>
      </feComponentTransfer>
      <feFlood flood-color="rgba(0,0,0,0.3)"/>
      <feComposite in2="offsetblur" operator="in"/>
      <feMerge>
        <feMergeNode/>
        <feMergeNode in="SourceGraphic"/>
      </feMerge>
    </filter>
  </defs>
  <g style="" transform="matrix(0.672532, 0, 0, 0.672532, -23.18267, 6.215459)">
    <g transform="matrix(1.259792, 0, 0, 1.259792, -125.538374, -55.123405)" style="">
      <title>ruru</title>
      <path d="M 682.258 346.659 C 673.853 346.659 666.589 344.558 660.466 340.356 C 654.342 336.154 649.059 330.691 644.617 323.967 C 640.174 317.243 636.332 309.859 633.09 301.814 C 629.849 293.77 626.787 286.026 623.905 278.582 C 619.583 266.576 615.621 256.07 612.019 247.064 C 608.417 238.06 604.455 230.435 600.132 224.191 C 595.569 242.442 591.907 259.972 589.146 276.781 C 586.385 293.591 584.644 312.321 583.923 332.972 C 579.6 337.054 574.738 340.176 569.335 342.337 C 563.932 344.499 558.469 345.579 552.946 345.579 C 544.541 345.579 537.097 342.638 530.613 336.754 C 524.13 330.871 520.888 320.965 520.888 307.037 C 520.888 297.432 522.329 286.626 525.21 274.619 C 528.092 262.613 531.634 250.246 535.836 237.519 C 540.039 224.792 544.301 212.425 548.623 200.418 C 552.946 188.412 556.548 177.546 559.429 167.82 C 562.311 158.095 563.752 150.351 563.752 144.587 C 563.752 138.584 561.711 135.582 557.628 135.582 C 553.066 135.582 547.543 139.004 541.059 145.848 C 534.576 152.692 527.972 162.238 521.248 174.484 L 519.087 173.763 C 519.087 159.355 522.209 146.508 528.452 135.222 C 534.695 123.936 543.16 114.391 553.846 106.586 C 564.532 98.782 576.899 92.839 590.947 88.756 C 604.995 84.674 619.703 82.633 635.071 82.633 C 655.482 82.633 672.052 85.815 684.779 92.178 C 697.506 98.542 706.932 106.706 713.055 116.672 C 719.178 126.638 722.24 137.263 722.24 148.549 C 722.24 160.076 719.298 171.362 713.415 182.408 C 707.532 193.454 699.247 202.639 688.561 209.963 C 677.875 217.288 665.208 221.551 650.56 222.751 C 655.603 226.593 659.925 231.456 663.527 237.339 C 667.129 243.223 670.851 249.886 674.693 257.33 C 678.055 264.054 682.017 270.477 686.58 276.6 C 691.143 282.724 697.386 285.786 705.31 285.786 C 709.393 285.786 712.755 284.766 715.396 282.724 C 718.037 280.683 720.319 277.261 722.24 272.458 L 724.401 273.539 C 725.602 277.141 726.382 280.623 726.742 283.985 C 727.103 287.347 727.283 290.468 727.283 293.35 C 727.283 308.478 723.081 321.145 714.676 331.351 C 706.271 341.557 695.465 346.659 682.258 346.659 Z M 618.142 191.053 C 626.787 191.053 634.291 189.072 640.655 185.11 C 647.018 181.148 651.941 176.225 655.423 170.341 C 658.905 164.459 660.646 158.516 660.646 152.512 C 660.646 145.068 657.824 138.524 652.181 132.881 C 646.538 127.238 637.353 124.416 624.626 124.416 C 622.705 124.416 620.723 124.476 618.682 124.596 C 616.641 124.716 614.66 124.896 612.739 125.136 C 612.979 126.818 613.099 128.439 613.099 129.999 C 613.099 131.56 613.099 132.34 613.099 132.34 C 613.099 143.387 612.679 154.073 611.839 164.398 C 610.998 174.724 609.858 183.369 608.417 190.333 C 610.098 190.573 611.718 190.753 613.279 190.873 C 614.84 190.993 616.461 191.053 618.142 191.053 Z M 782.798 345.579 C 771.992 345.579 762.927 341.137 755.603 332.251 C 748.279 323.367 744.617 311.48 744.617 296.592 C 744.617 288.428 745.577 279.663 747.498 270.297 C 749.419 260.932 751.341 252.047 753.262 243.642 C 754.943 237.399 756.323 231.576 757.404 226.172 C 758.485 220.77 759.025 216.387 759.025 213.025 C 759.025 208.703 758.124 205.582 756.323 203.66 C 754.522 201.739 752.421 200.778 750.02 200.778 C 747.619 200.778 745.217 201.559 742.816 203.12 C 740.415 204.681 738.494 207.022 737.053 210.144 L 734.171 209.063 C 734.171 199.218 736.572 190.813 741.375 183.849 C 746.178 176.885 752.301 171.602 759.745 168 C 767.189 164.398 774.753 162.597 782.438 162.597 C 788.681 162.597 794.685 163.858 800.448 166.379 C 806.211 168.901 810.954 172.803 814.676 178.086 C 818.398 183.369 820.259 189.973 820.259 197.897 C 820.259 202.7 819.599 208.463 818.278 215.186 C 816.957 221.91 815.456 228.874 813.775 236.078 C 812.094 243.522 810.474 251.026 808.913 258.59 C 807.352 266.155 806.571 272.819 806.571 278.582 C 806.571 283.865 807.412 288.187 809.093 291.549 C 810.774 294.911 813.295 296.592 816.657 296.592 C 822.9 296.592 829.924 290.829 837.729 279.302 C 845.533 267.776 851.836 252.287 856.639 232.836 C 857.6 228.994 858.44 224.912 859.16 220.589 C 859.881 216.267 860.241 211.825 860.241 207.262 C 860.241 203.66 860.001 199.998 859.521 196.276 C 859.04 192.554 858.32 188.772 857.359 184.93 L 857.359 182.408 C 861.202 175.925 866.185 171.002 872.308 167.64 C 878.431 164.278 884.615 162.597 890.858 162.597 C 899.263 162.597 906.827 165.479 913.551 171.242 C 920.274 177.006 923.636 185.41 923.636 196.456 C 923.636 202.94 922.435 210.444 920.034 218.968 C 917.633 227.494 914.991 236.319 912.11 245.443 C 909.228 254.329 906.586 263.094 904.185 271.738 C 901.784 280.383 900.583 288.067 900.583 294.791 C 900.583 304.637 904.065 309.559 911.029 309.559 C 912.95 309.559 915.292 309.019 918.053 307.938 C 920.814 306.858 923.396 304.636 925.797 301.274 L 928.319 301.995 C 928.319 310.64 925.978 318.264 921.295 324.867 C 916.612 331.471 910.669 336.574 903.465 340.176 C 896.261 343.778 888.817 345.579 881.133 345.579 C 871.287 345.579 862.462 341.977 854.658 334.773 C 846.853 327.569 842.951 315.803 842.951 299.473 L 842.951 298.753 C 833.106 315.563 822.9 327.569 812.334 334.773 C 801.769 341.977 791.923 345.579 782.798 345.579 Z M 979.168 345.579 C 970.523 345.579 962.839 342.037 956.115 334.953 C 949.391 327.869 946.029 317.844 946.029 304.876 C 946.029 298.633 946.75 291.549 948.191 283.624 C 949.632 275.7 951.312 267.596 953.233 259.311 C 955.154 251.027 956.835 243.222 958.276 235.898 C 959.717 228.574 960.437 222.511 960.437 217.708 C 960.437 212.666 959.537 208.643 957.736 205.641 C 955.935 202.64 953.593 201.139 950.712 201.139 C 946.149 201.139 941.467 204.261 936.664 210.504 L 934.503 209.063 C 934.263 205.221 935.103 200.659 937.024 195.375 C 938.945 190.093 941.947 184.99 946.029 180.067 C 950.112 175.145 955.335 171.002 961.698 167.64 C 968.061 164.278 975.566 162.597 984.211 162.597 C 996.938 162.597 1006.183 166.259 1011.946 173.583 C 1017.709 180.907 1020.591 189.732 1020.591 200.058 C 1020.591 201.739 1020.531 203.48 1020.411 205.281 C 1020.291 207.082 1020.111 208.823 1019.87 210.504 C 1028.515 194.896 1037.581 182.949 1047.066 174.664 C 1056.551 166.38 1065.375 162.237 1073.54 162.237 C 1081.225 162.237 1086.868 165.239 1090.47 171.242 C 1094.072 177.246 1095.873 184.45 1095.873 192.854 C 1095.873 200.538 1094.372 208.343 1091.37 216.267 C 1088.369 224.192 1083.926 230.736 1078.043 235.898 C 1072.16 241.061 1065.016 243.522 1056.611 243.282 L 1055.17 242.562 C 1054.93 236.318 1052.889 231.395 1049.047 227.793 C 1045.204 224.191 1040.882 222.39 1036.079 222.39 C 1029.596 222.39 1023.532 225.632 1017.889 232.116 C 1012.246 238.6 1009.425 247.965 1009.425 260.211 C 1009.425 267.656 1010.265 275.701 1011.946 284.345 C 1013.627 292.99 1014.467 300.314 1014.467 306.317 C 1014.467 313.521 1012.786 320.125 1009.425 326.128 C 1006.063 332.132 1001.74 336.874 996.457 340.356 C 991.174 343.838 985.411 345.579 979.168 345.579 Z M 1144.571 345.579 C 1133.765 345.579 1124.7 341.137 1117.376 332.251 C 1110.052 323.367 1106.39 311.48 1106.39 296.592 C 1106.39 288.428 1107.35 279.663 1109.271 270.297 C 1111.192 260.932 1113.113 252.047 1115.034 243.642 C 1116.715 237.399 1118.096 231.576 1119.177 226.172 C 1120.258 220.77 1120.798 216.387 1120.798 213.025 C 1120.798 208.703 1119.897 205.582 1118.096 203.66 C 1116.295 201.739 1114.194 200.778 1111.793 200.778 C 1109.392 200.778 1106.99 201.559 1104.589 203.12 C 1102.188 204.681 1100.266 207.022 1098.825 210.144 L 1095.944 209.063 C 1095.944 199.218 1098.345 190.813 1103.148 183.849 C 1107.951 176.885 1114.074 171.602 1121.518 168 C 1128.962 164.398 1136.526 162.597 1144.211 162.597 C 1150.454 162.597 1156.458 163.858 1162.221 166.379 C 1167.984 168.901 1172.726 172.803 1176.448 178.086 C 1180.171 183.369 1182.032 189.973 1182.032 197.897 C 1182.032 202.7 1181.371 208.463 1180.05 215.186 C 1178.729 221.91 1177.229 228.874 1175.548 236.078 C 1173.867 243.522 1172.246 251.026 1170.685 258.59 C 1169.124 266.155 1168.344 272.819 1168.344 278.582 C 1168.344 283.865 1169.184 288.187 1170.865 291.549 C 1172.546 294.911 1175.068 296.592 1178.43 296.592 C 1184.673 296.592 1191.697 290.829 1199.501 279.302 C 1207.306 267.776 1213.609 252.287 1218.412 232.836 C 1219.373 228.994 1220.213 224.912 1220.933 220.589 C 1221.654 216.267 1222.014 211.825 1222.014 207.262 C 1222.014 203.66 1221.774 199.998 1221.293 196.276 C 1220.813 192.554 1220.093 188.772 1219.132 184.93 L 1219.132 182.408 C 1222.974 175.925 1227.957 171.002 1234.08 167.64 C 1240.204 164.278 1246.388 162.597 1252.631 162.597 C 1261.036 162.597 1268.6 165.479 1275.323 171.242 C 1282.047 177.006 1285.409 185.41 1285.409 196.456 C 1285.409 202.94 1284.208 210.444 1281.807 218.968 C 1279.406 227.494 1276.764 236.319 1273.883 245.443 C 1271.001 254.329 1268.359 263.094 1265.958 271.738 C 1263.557 280.383 1262.356 288.067 1262.356 294.791 C 1262.356 304.637 1265.838 309.559 1272.802 309.559 C 1274.723 309.559 1277.065 309.019 1279.826 307.938 C 1282.587 306.858 1285.169 304.636 1287.57 301.274 L 1290.092 301.995 C 1290.092 310.64 1287.751 318.264 1283.068 324.867 C 1278.385 331.471 1272.442 336.574 1265.238 340.176 C 1258.034 343.778 1250.59 345.579 1242.905 345.579 C 1233.06 345.579 1224.235 341.977 1216.431 334.773 C 1208.626 327.569 1204.724 315.803 1204.724 299.473 L 1204.724 298.753 C 1194.879 315.563 1184.673 327.569 1174.107 334.773 C 1163.541 341.977 1153.696 345.579 1144.571 345.579 Z" style="fill: rgb(50, 42, 39); stroke: rgb(255, 255, 255); stroke-width: 25.4871px; stroke-linejoin: round; stroke-linecap: round;">
        <title>outline</title>
      </path>
      <path d="M 682.258 346.659 C 673.853 346.659 666.589 344.558 660.466 340.356 C 654.342 336.154 649.059 330.691 644.617 323.967 C 640.174 317.243 636.332 309.859 633.09 301.814 C 629.849 293.77 626.787 286.026 623.905 278.582 C 619.583 266.576 615.621 256.07 612.019 247.064 C 608.417 238.06 604.455 230.435 600.132 224.191 C 595.569 242.442 591.907 259.972 589.146 276.781 C 586.385 293.591 584.644 312.321 583.923 332.972 C 579.6 337.054 574.738 340.176 569.335 342.337 C 563.932 344.499 558.469 345.579 552.946 345.579 C 544.541 345.579 537.097 342.638 530.613 336.754 C 524.13 330.871 520.888 320.965 520.888 307.037 C 520.888 297.432 522.329 286.626 525.21 274.619 C 528.092 262.613 531.634 250.246 535.836 237.519 C 540.039 224.792 544.301 212.425 548.623 200.418 C 552.946 188.412 556.548 177.546 559.429 167.82 C 562.311 158.095 563.752 150.351 563.752 144.587 C 563.752 138.584 561.711 135.582 557.628 135.582 C 553.066 135.582 547.543 139.004 541.059 145.848 C 534.576 152.692 527.972 162.238 521.248 174.484 L 519.087 173.763 C 519.087 159.355 522.209 146.508 528.452 135.222 C 534.695 123.936 543.16 114.391 553.846 106.586 C 564.532 98.782 576.899 92.839 590.947 88.756 C 604.995 84.674 619.703 82.633 635.071 82.633 C 655.482 82.633 672.052 85.815 684.779 92.178 C 697.506 98.542 706.932 106.706 713.055 116.672 C 719.178 126.638 722.24 137.263 722.24 148.549 C 722.24 160.076 719.298 171.362 713.415 182.408 C 707.532 193.454 699.247 202.639 688.561 209.963 C 677.875 217.288 665.208 221.551 650.56 222.751 C 655.603 226.593 659.925 231.456 663.527 237.339 C 667.129 243.223 670.851 249.886 674.693 257.33 C 678.055 264.054 682.017 270.477 686.58 276.6 C 691.143 282.724 697.386 285.786 705.31 285.786 C 709.393 285.786 712.755 284.766 715.396 282.724 C 718.037 280.683 720.319 277.261 722.24 272.458 L 724.401 273.539 C 725.602 277.141 726.382 280.623 726.742 283.985 C 727.103 287.347 727.283 290.468 727.283 293.35 C 727.283 308.478 723.081 321.145 714.676 331.351 C 706.271 341.557 695.465 346.659 682.258 346.659 Z M 618.142 191.053 C 626.787 191.053 634.291 189.072 640.655 185.11 C 647.018 181.148 651.941 176.225 655.423 170.341 C 658.905 164.459 660.646 158.516 660.646 152.512 C 660.646 145.068 657.824 138.524 652.181 132.881 C 646.538 127.238 637.353 124.416 624.626 124.416 C 622.705 124.416 620.723 124.476 618.682 124.596 C 616.641 124.716 614.66 124.896 612.739 125.136 C 612.979 126.818 613.099 128.439 613.099 129.999 C 613.099 131.56 613.099 132.34 613.099 132.34 C 613.099 143.387 612.679 154.073 611.839 164.398 C 610.998 174.724 609.858 183.369 608.417 190.333 C 610.098 190.573 611.718 190.753 613.279 190.873 C 614.84 190.993 616.461 191.053 618.142 191.053 Z M 782.798 345.579 C 771.992 345.579 762.927 341.137 755.603 332.251 C 748.279 323.367 744.617 311.48 744.617 296.592 C 744.617 288.428 745.577 279.663 747.498 270.297 C 749.419 260.932 751.341 252.047 753.262 243.642 C 754.943 237.399 756.323 231.576 757.404 226.172 C 758.485 220.77 759.025 216.387 759.025 213.025 C 759.025 208.703 758.124 205.582 756.323 203.66 C 754.522 201.739 752.421 200.778 750.02 200.778 C 747.619 200.778 745.217 201.559 742.816 203.12 C 740.415 204.681 738.494 207.022 737.053 210.144 L 734.171 209.063 C 734.171 199.218 736.572 190.813 741.375 183.849 C 746.178 176.885 752.301 171.602 759.745 168 C 767.189 164.398 774.753 162.597 782.438 162.597 C 788.681 162.597 794.685 163.858 800.448 166.379 C 806.211 168.901 810.954 172.803 814.676 178.086 C 818.398 183.369 820.259 189.973 820.259 197.897 C 820.259 202.7 819.599 208.463 818.278 215.186 C 816.957 221.91 815.456 228.874 813.775 236.078 C 812.094 243.522 810.474 251.026 808.913 258.59 C 807.352 266.155 806.571 272.819 806.571 278.582 C 806.571 283.865 807.412 288.187 809.093 291.549 C 810.774 294.911 813.295 296.592 816.657 296.592 C 822.9 296.592 829.924 290.829 837.729 279.302 C 845.533 267.776 851.836 252.287 856.639 232.836 C 857.6 228.994 858.44 224.912 859.16 220.589 C 859.881 216.267 860.241 211.825 860.241 207.262 C 860.241 203.66 860.001 199.998 859.521 196.276 C 859.04 192.554 858.32 188.772 857.359 184.93 L 857.359 182.408 C 861.202 175.925 866.185 171.002 872.308 167.64 C 878.431 164.278 884.615 162.597 890.858 162.597 C 899.263 162.597 906.827 165.479 913.551 171.242 C 920.274 177.006 923.636 185.41 923.636 196.456 C 923.636 202.94 922.435 210.444 920.034 218.968 C 917.633 227.494 914.991 236.319 912.11 245.443 C 909.228 254.329 906.586 263.094 904.185 271.738 C 901.784 280.383 900.583 288.067 900.583 294.791 C 900.583 304.637 904.065 309.559 911.029 309.559 C 912.95 309.559 915.292 309.019 918.053 307.938 C 920.814 306.858 923.396 304.636 925.797 301.274 L 928.319 301.995 C 928.319 310.64 925.978 318.264 921.295 324.867 C 916.612 331.471 910.669 336.574 903.465 340.176 C 896.261 343.778 888.817 345.579 881.133 345.579 C 871.287 345.579 862.462 341.977 854.658 334.773 C 846.853 327.569 842.951 315.803 842.951 299.473 L 842.951 298.753 C 833.106 315.563 822.9 327.569 812.334 334.773 C 801.769 341.977 791.923 345.579 782.798 345.579 Z M 979.168 345.579 C 970.523 345.579 962.839 342.037 956.115 334.953 C 949.391 327.869 946.029 317.844 946.029 304.876 C 946.029 298.633 946.75 291.549 948.191 283.624 C 949.632 275.7 951.312 267.596 953.233 259.311 C 955.154 251.027 956.835 243.222 958.276 235.898 C 959.717 228.574 960.437 222.511 960.437 217.708 C 960.437 212.666 959.537 208.643 957.736 205.641 C 955.935 202.64 953.593 201.139 950.712 201.139 C 946.149 201.139 941.467 204.261 936.664 210.504 L 934.503 209.063 C 934.263 205.221 935.103 200.659 937.024 195.375 C 938.945 190.093 941.947 184.99 946.029 180.067 C 950.112 175.145 955.335 171.002 961.698 167.64 C 968.061 164.278 975.566 162.597 984.211 162.597 C 996.938 162.597 1006.183 166.259 1011.946 173.583 C 1017.709 180.907 1020.591 189.732 1020.591 200.058 C 1020.591 201.739 1020.531 203.48 1020.411 205.281 C 1020.291 207.082 1020.111 208.823 1019.87 210.504 C 1028.515 194.896 1037.581 182.949 1047.066 174.664 C 1056.551 166.38 1065.375 162.237 1073.54 162.237 C 1081.225 162.237 1086.868 165.239 1090.47 171.242 C 1094.072 177.246 1095.873 184.45 1095.873 192.854 C 1095.873 200.538 1094.372 208.343 1091.37 216.267 C 1088.369 224.192 1083.926 230.736 1078.043 235.898 C 1072.16 241.061 1065.016 243.522 1056.611 243.282 L 1055.17 242.562 C 1054.93 236.318 1052.889 231.395 1049.047 227.793 C 1045.204 224.191 1040.882 222.39 1036.079 222.39 C 1029.596 222.39 1023.532 225.632 1017.889 232.116 C 1012.246 238.6 1009.425 247.965 1009.425 260.211 C 1009.425 267.656 1010.265 275.701 1011.946 284.345 C 1013.627 292.99 1014.467 300.314 1014.467 306.317 C 1014.467 313.521 1012.786 320.125 1009.425 326.128 C 1006.063 332.132 1001.74 336.874 996.457 340.356 C 991.174 343.838 985.411 345.579 979.168 345.579 Z M 1144.571 345.579 C 1133.765 345.579 1124.7 341.137 1117.376 332.251 C 1110.052 323.367 1106.39 311.48 1106.39 296.592 C 1106.39 288.428 1107.35 279.663 1109.271 270.297 C 1111.192 260.932 1113.113 252.047 1115.034 243.642 C 1116.715 237.399 1118.096 231.576 1119.177 226.172 C 1120.258 220.77 1120.798 216.387 1120.798 213.025 C 1120.798 208.703 1119.897 205.582 1118.096 203.66 C 1116.295 201.739 1114.194 200.778 1111.793 200.778 C 1109.392 200.778 1106.99 201.559 1104.589 203.12 C 1102.188 204.681 1100.266 207.022 1098.825 210.144 L 1095.944 209.063 C 1095.944 199.218 1098.345 190.813 1103.148 183.849 C 1107.951 176.885 1114.074 171.602 1121.518 168 C 1128.962 164.398 1136.526 162.597 1144.211 162.597 C 1150.454 162.597 1156.458 163.858 1162.221 166.379 C 1167.984 168.901 1172.726 172.803 1176.448 178.086 C 1180.171 183.369 1182.032 189.973 1182.032 197.897 C 1182.032 202.7 1181.371 208.463 1180.05 215.186 C 1178.729 221.91 1177.229 228.874 1175.548 236.078 C 1173.867 243.522 1172.246 251.026 1170.685 258.59 C 1169.124 266.155 1168.344 272.819 1168.344 278.582 C 1168.344 283.865 1169.184 288.187 1170.865 291.549 C 1172.546 294.911 1175.068 296.592 1178.43 296.592 C 1184.673 296.592 1191.697 290.829 1199.501 279.302 C 1207.306 267.776 1213.609 252.287 1218.412 232.836 C 1219.373 228.994 1220.213 224.912 1220.933 220.589 C 1221.654 216.267 1222.014 211.825 1222.014 207.262 C 1222.014 203.66 1221.774 199.998 1221.293 196.276 C 1220.813 192.554 1220.093 188.772 1219.132 184.93 L 1219.132 182.408 C 1222.974 175.925 1227.957 171.002 1234.08 167.64 C 1240.204 164.278 1246.388 162.597 1252.631 162.597 C 1261.036 162.597 1268.6 165.479 1275.323 171.242 C 1282.047 177.006 1285.409 185.41 1285.409 196.456 C 1285.409 202.94 1284.208 210.444 1281.807 218.968 C 1279.406 227.494 1276.764 236.319 1273.883 245.443 C 1271.001 254.329 1268.359 263.094 1265.958 271.738 C 1263.557 280.383 1262.356 288.067 1262.356 294.791 C 1262.356 304.637 1265.838 309.559 1272.802 309.559 C 1274.723 309.559 1277.065 309.019 1279.826 307.938 C 1282.587 306.858 1285.169 304.636 1287.57 301.274 L 1290.092 301.995 C 1290.092 310.64 1287.751 318.264 1283.068 324.867 C 1278.385 331.471 1272.442 336.574 1265.238 340.176 C 1258.034 343.778 1250.59 345.579 1242.905 345.579 C 1233.06 345.579 1224.235 341.977 1216.431 334.773 C 1208.626 327.569 1204.724 315.803 1204.724 299.473 L 1204.724 298.753 C 1194.879 315.563 1184.673 327.569 1174.107 334.773 C 1163.541 341.977 1153.696 345.579 1144.571 345.579 Z" style="fill: rgb(50, 42, 39); stroke-width: 5.947px;">
        <title>text</title>
      </path>
    </g>
    <path d="M 415.071 365.89 C 377.222 403.738 322.955 428.017 265.082 428.017 C 207.209 428.017 152.942 403.738 115.093 365.89 C 77.245 328.041 52.966 273.774 52.966 215.901 C 52.966 202.097 54.366 188.306 56.944 175.04 L 76.088 165.844 C 71.261 168.162 64.227 168.973 60.422 168.251 C 59.885 167.985 59.267 167.627 58.618 167.198 C 59.624 162.881 60.754 158.633 61.999 154.473 L 58.261 166.957 C 56.108 165.474 53.717 163.29 52.829 161.221 C 51.871 158.989 51.657 155.028 51.949 152.293 C 53.42 144.82 63.831 125.008 72.806 110.559 L 107.527 94.93 C 103.25 96.855 95.541 98.85 91.394 98.71 C 89.095 97.447 86.322 95.314 84.647 93.409 C 88.37 88.51 92.29 83.754 96.333 79.382 L 84.045 92.669 C 83.673 92.169 83.399 91.696 83.255 91.274 C 82.598 89.344 82.614 86.266 82.772 84.826 C 84.222 80.997 87.816 76.089 88.99 74.58 C 89.15 74.343 89.374 74.046 89.673 73.693 C 90.298 72.955 91.222 72.183 91.891 71.654 C 96.692 67.88 129.31 42.333 148.223 32.425 C 165.237 23.677 188.939 16.067 199.049 14.269 C 219.804 7.453 242.021 3.785 265.082 3.785 C 312.641 3.785 357.068 20.04 392.167 46.062 C 395.394 47.423 397.516 48.42 400.006 49.685 C 408.623 54.147 420.099 62.444 423.426 65.729 C 423.993 66.588 424.527 67.472 424.996 68.302 C 425.339 68.412 424.978 68.175 429.466 70.987 C 433.993 75.443 442.272 88.072 445.241 91.097 C 445.396 91.43 445.159 91.129 445.711 91.489 C 446.255 91.844 447.684 92.901 449.469 94.532 C 452.219 97.352 458.559 104.367 461.414 109.501 C 463.422 113.57 465.015 121.784 464.291 126.716 C 464.187 126.895 464.077 127.079 463.962 127.266 L 460.386 120.718 C 461.603 122.945 462.801 125.201 463.909 127.351 C 462.425 129.726 460.065 132.534 458.501 133.401 C 456.855 134.313 453.862 134.984 452.127 135.166 L 467.004 133.603 C 475.92 152.235 488.778 183.865 487.926 191.951 C 486.999 194.342 484.859 198.001 483.094 199.199 C 481.683 200.156 479.422 200.862 477.888 201.144 L 473.936 178.65 C 475.223 185.977 476.158 193.595 476.689 201.286 C 474.333 201.397 471.702 200.807 470.695 200.54 C 467.471 199.478 463.203 196.579 459.185 191.378 C 458.045 189.613 456.684 187.07 455.477 184.518 L 476.752 229.493 C 473.292 282.215 449.94 331.02 415.071 365.89 Z M 454.696 182.06 L 446.499 136.223 C 445.469 134.222 444.388 132.19 443.238 130.084 L 437.652 119.861 L 443.266 118.148 L 442.997 116.642 C 441.085 113.853 437.617 110.365 435.482 108.176 C 435.488 108.14 435.503 108.126 435.516 108.121 C 435.47 108.109 435.34 108.054 435.035 107.855 C 434.341 107.402 432.814 106.228 431.037 104.516 C 426.978 100.104 419.1 87.875 416.067 85.209 C 417.124 84.522 414.996 84.285 410.592 81.707 C 410.174 80.874 409.779 80.078 409.42 79.353 C 407.22 77.076 398.385 70.731 391.124 67.089 C 389.04 66.02 386.457 64.853 383.471 63.597 L 382.316 63.111 L 381.359 62.377 C 348.702 37.325 309.323 23.325 265.082 23.325 C 243.637 23.325 223.76 26.602 204.461 33.057 L 203.62 33.339 L 202.792 33.452 C 194.906 34.528 172.723 41.651 157.221 49.771 C 152.89 51.993 147.707 55.188 142.291 58.79 L 110.649 92.682 C 104.704 99.05 99.366 106.032 94.065 113.705 C 89.088 120.878 82.914 130.972 78.237 139.59 L 89.729 130.529 L 80.705 160.123 C 75.253 178 72.506 196.262 72.506 215.901 C 72.506 269.781 93.524 316.687 128.91 352.073 C 164.296 387.459 211.202 408.477 265.082 408.477 C 318.962 408.477 365.868 387.459 401.254 352.073 C 436.64 316.687 457.658 269.781 457.658 215.901 C 457.658 204.211 456.685 193.185 454.696 182.06 Z" style="stroke: rgb(255, 255, 255); stroke-width: 26.3367px; stroke-linecap: round; stroke-linejoin: round; fill: none;">
      <title>outline</title>
    </path>
    <path d="M 467.133 215.075 C 467.133 326.828 376.54 417.421 264.787 417.421 C 153.034 417.421 62.441 326.828 62.441 215.075 C 62.441 194.697 65.453 175.022 71.057 156.472 C 67.883 158.231 64.788 158.689 63.266 158.173 C 61.71 157.645 60.801 156.059 61.295 153.048 C 62.507 145.657 76.398 120.819 85.735 107.321 C 91.178 99.453 96.954 91.925 103.196 85.206 C 99.254 86.994 94.663 88.679 93.297 88.364 C 92.158 88.101 91.93 86.713 92.114 85.605 C 92.378 84.02 95.477 80.852 96.45 79.692 C 96.989 79.049 96.534 79.373 97.633 78.509 C 102.436 74.734 134.285 49.683 152.427 40.272 C 168.685 31.838 192.415 24.217 201.093 22.957 C 221.12 16.321 242.534 12.729 264.787 12.729 C 310.687 12.729 353.018 28.012 386.969 53.767 C 390.076 55.076 392.983 56.394 395.27 57.561 C 403.249 61.633 413.462 69.004 416.163 71.752 C 417.258 72.866 416.602 73.342 417.346 74.117 C 418.379 75.194 420.332 75.256 422.47 77.271 C 426.25 80.831 434.33 93.262 437.844 96.98 C 439.776 99.025 440.424 98.728 442.18 100.528 C 444.869 103.285 450.363 109.123 452.43 113.143 C 454.115 116.419 455.454 120.753 454.795 122.603 C 454.361 123.818 452.789 124.534 451.517 124.575 C 452.812 126.946 454.054 129.289 455.209 131.546 C 463.788 148.303 479.339 183.118 478.073 189.099 C 477.6 191.33 474.644 190.74 472.948 190.282 C 470.96 189.745 469.491 188.865 467.035 185.157 C 466.146 183.815 465.132 181.888 464.021 179.529 C 466.066 191.07 467.133 202.948 467.133 215.075 Z" style="fill: url('#gradient-1'); stroke-width: 19.5401px; stroke: rgb(50, 42, 39);">
      <title>body</title>
    </path>
    <g transform="matrix(1.315287, 0, 0, 1.315287, -65.368979, -139.893934)" style="">
      <title>eyes</title>
      <g transform="matrix(1, 0, 0, 1, 20.311966, 163.668668)" style="">
        <title>left</title>
        <ellipse style="fill: url('#gradient-2');" cx="172.968" cy="62.422" rx="61.315" ry="61.315"/>
        <ellipse style="fill: rgb(255, 243, 172); stroke-width: 2.87785px; filter: url('#drop-shadow-filter-1');" cx="188.2" cy="52.942" rx="27.448" ry="27.448"/>
      </g>
      <g transform="matrix(-1, 0, 0, 1, 489.115899, 163.668668)" style="">
        <title>right</title>
        <ellipse style="fill: url('#gradient-3');" cx="172.968" cy="62.422" rx="61.315" ry="61.315"/>
        <ellipse style="fill: rgb(255, 243, 172); stroke-width: 2.87785px;" cx="188.2" cy="52.942" rx="27.448" ry="27.448"/>
      </g>
    </g>
    <g transform="matrix(1, 0, 0, 1, -2.623143, 16.613121)" style="opacity: 0.51;">
      <title>feathers</title>
      <g>
        <path style="fill: rgb(77, 63, 59);" d="M 83.735 161.928 C 72.391 172.163 60.134 193.901 77.89 201.468 C 83.542 203.877 87.206 200.915 89.592 196.978 C 95.409 187.378 88.06 173.596 92.303 163.64 C 92.837 162.388 96.226 154.436 96.226 154.436 C 96.226 154.436 91.667 156.238 91.338 156.428 C 89.279 157.617 88.994 157.704 86.945 159.238"/>
        <path style="fill: rgb(77, 63, 59); transform-origin: 93.376px 237.807px;" d="M 84.801 217.408 C 77.89 237.383 77.549 271.902 104.114 269.218 C 112.57 268.364 115.032 262.329 115.295 255.966 C 115.934 240.452 97.83 228.659 96.325 213.764 C 96.136 211.891 94.934 199.993 94.934 199.993 C 94.934 199.993 90.613 205.22 90.341 205.67 C 88.64 208.485 88.353 208.781 86.895 212.007"/>
        <path style="fill: rgb(77, 63, 59); transform-origin: 137.261px 259.974px;" d="M 128.686 239.575 C 121.775 259.55 121.434 294.069 147.999 291.385 C 156.455 290.531 158.917 284.496 159.18 278.133 C 159.819 262.619 141.715 250.826 140.21 235.931 C 140.021 234.058 138.819 222.16 138.819 222.16 C 138.819 222.16 134.498 227.387 134.226 227.837 C 132.525 230.652 132.238 230.948 130.78 234.174"/>
        <path style="fill: rgb(122, 102, 96);" d="M 86.718 174.473 C 80.728 179.878 74.254 191.357 83.631 195.353 C 86.616 196.625 88.55 195.061 89.81 192.982 C 92.882 187.913 89.001 180.634 91.242 175.378 C 91.524 174.717 93.314 170.517 93.314 170.517 C 93.314 170.517 90.906 171.469 90.733 171.569 C 89.645 172.197 89.495 172.244 88.413 173.053"/>
        <path style="fill: rgb(122, 102, 96); transform-origin: 105.376px 247.3px;" d="M 100.847 236.528 C 97.198 247.076 97.018 265.304 111.046 263.887 C 115.511 263.436 116.811 260.249 116.95 256.889 C 117.288 248.697 107.728 242.469 106.933 234.604 C 106.833 233.615 106.198 227.332 106.198 227.332 C 106.198 227.332 103.917 230.092 103.773 230.33 C 102.875 231.816 102.723 231.972 101.953 233.676"/>
        <path style="fill: rgb(122, 102, 96); transform-origin: 142.515px 261.401px;" d="M 137.987 250.629 C 134.337 261.177 134.157 279.405 148.185 277.987 C 152.65 277.536 153.95 274.35 154.089 270.99 C 154.427 262.797 144.867 256.57 144.072 248.704 C 143.972 247.715 143.337 241.432 143.337 241.432 C 143.337 241.432 141.056 244.193 140.912 244.43 C 140.014 245.917 139.862 246.073 139.092 247.777"/>
        <path style="fill: rgb(77, 63, 59); transform-origin: 131.011px 316.542px;" d="M 115.667 305.559 C 119.725 326.303 136.77 356.322 158.392 340.657 C 165.275 335.671 164.372 329.216 161.403 323.582 C 154.163 309.846 132.585 308.743 123.801 296.62 C 122.697 295.095 115.681 285.411 115.681 285.411 C 115.681 285.411 114.57 292.101 114.561 292.627 C 114.505 295.915 114.405 296.315 114.765 299.837"/>
        <path style="fill: rgb(122, 102, 96); transform-origin: 143.011px 326.035px;" d="M 139.146 314.032 C 141.29 324.985 150.29 340.837 161.708 332.566 C 165.343 329.933 164.866 326.524 163.298 323.549 C 159.475 316.296 148.081 315.712 143.442 309.311 C 142.859 308.506 139.154 303.392 139.154 303.392 C 139.154 303.392 138.568 306.925 138.563 307.203 C 138.533 308.939 138.48 309.15 138.67 311.01"/>
        <path style="fill: rgb(77, 63, 59); transform-origin: 113.049px 195.367px;" d="M 104.474 174.968 C 97.563 194.943 97.222 229.462 123.787 226.778 C 132.243 225.924 134.705 219.889 134.968 213.526 C 135.607 198.012 117.503 186.219 115.998 171.324 C 115.809 169.451 114.607 157.553 114.607 157.553 C 114.607 157.553 110.286 162.78 110.014 163.23 C 108.313 166.045 108.026 166.341 106.568 169.567"/>
        <path style="fill: rgb(122, 102, 96); transform-origin: 118.303px 196.794px;" d="M 113.775 186.022 C 110.125 196.57 109.945 214.798 123.973 213.38 C 128.438 212.929 129.738 209.743 129.877 206.383 C 130.215 198.19 120.655 191.963 119.86 184.097 C 119.76 183.108 119.125 176.825 119.125 176.825 C 119.125 176.825 116.844 179.586 116.7 179.823 C 115.802 181.31 115.65 181.466 114.88 183.17"/>
      </g>
      <g transform="matrix(-1, 0, 0, 1, 533.063103, 5.650668)" style="">
        <path style="fill: rgb(77, 63, 59);" d="M 80.876 161.619 C 71.25 171.838 61.644 192.657 78.468 198.264 C 83.823 200.05 86.958 197.064 88.85 193.281 C 93.462 184.057 85.706 171.983 88.85 162.55 C 89.246 161.364 91.757 153.828 91.757 153.828 C 91.757 153.828 87.716 155.818 87.429 156.017 C 85.632 157.259 85.378 157.36 83.615 158.917"/>
        <path style="fill: rgb(77, 63, 59); transform-origin: 93.376px 237.807px;" d="M 84.801 217.408 C 77.89 237.383 77.549 271.902 104.114 269.218 C 112.57 268.364 115.032 262.329 115.295 255.966 C 115.934 240.452 97.83 228.659 96.325 213.764 C 96.136 211.891 94.934 199.993 94.934 199.993 C 94.934 199.993 90.613 205.22 90.341 205.67 C 88.64 208.485 88.353 208.781 86.895 212.007"/>
        <path style="fill: rgb(77, 63, 59); transform-origin: 133.415px 250.718px;" d="M 124.84 230.319 C 117.929 250.294 117.588 284.813 144.153 282.129 C 152.609 281.275 155.071 275.24 155.334 268.877 C 155.973 253.363 137.869 241.57 136.364 226.675 C 136.175 224.802 134.973 212.904 134.973 212.904 C 134.973 212.904 130.652 218.131 130.38 218.581 C 128.679 221.396 128.392 221.692 126.934 224.918"/>
        <path style="fill: rgb(122, 102, 96);" d="M 84.542 172.886 C 79.459 178.282 74.386 189.275 83.27 192.237 C 86.098 193.179 87.753 191.603 88.752 189.605 C 91.188 184.734 87.092 178.358 88.752 173.377 C 88.961 172.751 90.288 168.772 90.288 168.772 C 90.288 168.772 88.154 169.823 88.002 169.928 C 87.053 170.583 86.919 170.637 85.989 171.459"/>
        <path style="fill: rgb(122, 102, 96); transform-origin: 105.376px 247.3px;" d="M 100.847 236.528 C 97.198 247.076 97.018 265.304 111.046 263.887 C 115.511 263.436 116.811 260.249 116.95 256.889 C 117.288 248.697 107.728 242.469 106.933 234.604 C 106.833 233.615 106.198 227.332 106.198 227.332 C 106.198 227.332 103.917 230.092 103.773 230.33 C 102.875 231.816 102.723 231.972 101.953 233.676"/>
        <path style="fill: rgb(122, 102, 96); transform-origin: 143.03px 261.283px;" d="M 138.632 250.358 C 135.086 261.056 134.911 279.543 148.538 278.105 C 152.875 277.647 154.138 274.416 154.273 271.008 C 154.602 262.699 145.315 256.383 144.543 248.406 C 144.446 247.402 143.829 241.03 143.829 241.03 C 143.829 241.03 141.613 243.83 141.473 244.071 C 140.601 245.579 140.453 245.737 139.705 247.465"/>
        <path style="fill: rgb(77, 63, 59); transform-origin: 122.276px 311.301px;" d="M 106.932 300.318 C 110.99 321.062 128.035 351.081 149.657 335.416 C 156.54 330.43 155.637 323.975 152.668 318.341 C 145.428 304.605 123.85 303.502 115.066 291.379 C 113.962 289.854 106.946 280.17 106.946 280.17 C 106.946 280.17 105.835 286.86 105.826 287.386 C 105.77 290.674 105.67 291.074 106.03 294.596"/>
        <path style="fill: rgb(122, 102, 96); transform-origin: 134.276px 320.794px;" d="M 130.411 308.791 C 132.555 319.744 141.555 335.596 152.973 327.325 C 156.608 324.692 156.131 321.283 154.563 318.308 C 150.74 311.055 139.346 310.471 134.707 304.07 C 134.124 303.265 130.419 298.151 130.419 298.151 C 130.419 298.151 129.833 301.684 129.828 301.962 C 129.798 303.698 129.745 303.909 129.935 305.769"/>
        <path style="fill: rgb(77, 63, 59); transform-origin: 111.118px 184.664px;" d="M 104.256 168.341 C 98.725 184.325 98.453 211.947 119.71 209.8 C 126.476 209.116 128.446 204.287 128.657 199.195 C 129.168 186.781 114.681 177.344 113.477 165.425 C 113.326 163.926 112.364 154.406 112.364 154.406 C 112.364 154.406 108.906 158.588 108.689 158.948 C 107.327 161.201 107.098 161.437 105.931 164.019"/>
        <path style="fill: rgb(122, 102, 96); transform-origin: 115.322px 185.806px;" d="M 111.698 177.186 C 108.778 185.626 108.634 200.212 119.858 199.078 C 123.432 198.717 124.472 196.167 124.583 193.479 C 124.853 186.922 117.204 181.939 116.568 175.645 C 116.488 174.854 115.979 169.826 115.979 169.826 C 115.979 169.826 114.154 172.036 114.039 172.225 C 113.32 173.415 113.198 173.54 112.583 174.903"/>
      </g>
    </g>
    <g transform="matrix(0.611861, 0.058511, -0.058513, 0.611861, -6.236811, -46.171977)" style="transform-origin: 270.412px 345.246px;">
      <title>sticky</title>
      <path d="M 142.276 222.121 L 411.131 222.536 C 421.625 222.552 430.594 231.072 431.165 241.567 L 442.689 453.492 C 443.26 463.987 435.215 472.481 424.722 472.464 L 155.866 472.05 C 145.371 472.033 136.403 463.513 135.832 453.019 L 124.308 241.093 C 123.738 230.599 131.781 222.105 142.276 222.121 Z" style="fill: rgba(78, 64, 59, 0.224); transform-origin: 378.146px 899.098px;" transform="matrix(0.999974, -0.007229, 0.00723, 0.999974, 0, 0)"/>
      <path d="M 135.685 207.967 L 408.648 207.967 C 415.244 207.967 420.589 213.314 420.589 219.908 L 420.589 437.792 C 420.589 444.388 415.244 449.733 408.648 449.733 L 135.685 449.733 C 129.09 449.733 123.744 444.388 123.744 437.792 L 123.744 219.908 C 123.744 213.314 129.09 207.967 135.685 207.967 Z" style="fill: rgb(235, 206, 84); filter: none;"/>
      <path d="M 127.024 205.313 L 342.658 205.313 C 349.497 205.313 404.43 277.321 422.443 284.783 L 422.443 443.621 C 422.443 450.459 416.9 456.003 410.062 456.003 L 127.024 456.003 C 120.186 456.003 114.642 450.459 114.642 443.621 L 114.642 217.695 C 114.642 210.858 120.186 205.313 127.024 205.313 Z" style="fill: rgb(255, 222, 81); transform-box: fill-box; transform-origin: 50% 50%; filter: none;"/>
      <path d="M 350.172 236.843 C 350.68 236.677 350.398 237.055 350.401 237.05 L 421.995 285.189 L 422.657 294.765 C 422.682 294.785 422.657 294.733 422.657 294.767 L 374.453 294.75 C 358.265 294.75 350.172 288.356 350.172 275.569 L 350.172 236.843 Z" style="fill: rgba(77, 63, 59, 0.075); filter: none;"/>
      <path d="M 343.655 204.628 C 343.64 204.616 344.527 204.33 345.137 204.737 L 423.303 284.119 C 423.332 284.148 423.316 284.089 423.24 284.122 L 370.541 284.099 C 352.618 284.099 343.655 275.136 343.655 257.214 L 343.655 204.628 Z" style="stroke: rgb(231, 206, 98); fill: rgb(255, 249, 214); transform-box: fill-box; transform-origin: 50% 50%; filter: none;"/>
    </g>
    <g>
      <title>beak</title>
      <path d="M 267.218 183.114 L 270.437 183.114 C 281.125 183.114 289.79 191.779 289.79 202.467 L 289.803 202.434 C 289.679 212.377 276.802 257.699 269.364 259.394 L 268.54 259.394 C 260.072 259.024 248.053 212.339 247.865 202.386 L 247.865 202.467 C 247.865 191.779 256.53 183.114 267.218 183.114 Z" style="fill: rgba(73, 61, 56, 0.1);">
        <title>beak shadow</title>
      </path>
      <path d="M 268.038 174.433 L 271.257 174.433 C 281.945 174.433 290.609 183.098 290.609 193.786 L 290.622 193.753 C 290.498 203.696 277.621 249.018 270.183 250.713 L 269.359 250.713 C 260.892 250.344 248.873 203.658 248.684 193.705 L 248.684 193.786 C 248.684 183.098 257.35 174.433 268.038 174.433 Z" style="fill: rgb(134, 126, 123);">
        <title>beak</title>
      </path>
    </g>
  </g>
</svg>